<svg width="850" height="701" viewBox="0 0 850 701" fill="none" xmlns="http://www.w3.org/2000/svg">
<path d="M421.386 308.77C422.969 308.283 421.085 310.263 418.774 311.856C418.051 312.361 415.026 311.858 414.389 312.226C413.147 312.991 414.597 313.828 413.139 314.636C412.64 314.906 407.828 314.287 407.416 314.585C405.195 316.187 406.364 317.936 405.291 319.769C400.005 328.785 398.437 338.544 396.992 348.274C396.516 351.471 392.532 355.789 394.843 358.784C395.116 359.129 399.301 358.378 399.657 358.404C405.109 358.805 396.561 359.535 395.528 360.412C391.447 363.853 391.586 367.237 393.694 369.549C394.606 370.54 402.672 367.828 398.238 369.82C397.939 369.96 393.46 370.553 393.049 370.952C392.125 371.861 393.188 372.999 392.958 373.601C392.49 374.771 392.57 374.913 392.748 375.87C392.949 377.169 391.183 379.249 392.546 380.25C392.847 380.449 397.176 378.791 398.048 378.959C398.916 379.128 398.862 380.243 397.938 380.907C397.015 381.579 393.533 382.622 392.765 382.951C391.875 383.336 391.291 383.634 390.945 383.861C389.503 383.542 390.244 382.261 390.937 380.466C391.673 378.729 392.406 376.673 392.3 376.39C389.585 370.208 385.485 369.665 384.597 370.296C383.445 370.931 383.889 372.478 384.804 372.48C386.261 372.508 388.585 370.556 390.952 370.58C393.8 370.629 396.828 372.769 400.009 371.911C400.347 371.825 399.225 366.492 399.635 366.377C403.965 365.159 408.865 365.057 414.373 368.131C414.923 368.444 414.8 373.259 415.374 373.857C418.134 376.611 421.988 382.641 423.903 375.484C424.185 373.438 424.257 370.285 424.012 365.644C425.01 366.369 426.218 367.04 428.094 370.925C429.338 373.415 429.758 378.647 430.227 376.267C430.326 375.736 429.022 371.366 429.215 370.912C429.968 369.02 431.687 370.05 432.076 367.42C432.144 366.877 430.709 363.057 430.519 362.345C428.903 356.609 433.169 365.497 433.712 366.045C437.308 370.328 437.811 367.775 439.358 367.109C439.725 366.952 436.757 362.324 436.993 362.011C438.226 360.462 440.061 359.906 443.072 360.816C443.752 361.027 446.013 365.131 446.48 365.423C448.562 366.624 443.706 359.263 445.543 360.291C445.93 360.493 448.176 363.8 448.462 364.134C453.003 369.353 447.675 361.153 447.645 360.906C447.324 357.469 454.613 364.694 455.278 362.263C455.339 361.973 451.697 358.43 452.051 357.864C454.375 354.079 458.517 352.026 464.585 351.468C465.521 351.379 467.953 354.338 468.323 354.628C474.191 359.063 467.348 352.023 467.223 351.613C466.474 348.501 473.844 352.562 465.814 343.995C473.985 340.687 473.273 330.681 486.355 329.87C486.514 329.849 490.433 332.674 490.735 332.617C494.384 332.004 487.875 328.241 480.992 321.98C479.243 320.441 489.286 325.286 490.03 325.627C492.777 326.88 498.637 331.051 499.2 331.245C503.675 332.672 483.451 320.222 484.192 319.006C484.251 318.985 487.867 321.45 488.307 321.565C489.687 321.926 488.41 320.684 489.888 321.15C490.27 321.271 490.734 321.45 491.25 321.668C495.137 323.746 502.859 327.258 497.969 323.677C497.227 323.204 485.06 317.432 485.73 317.481C486.027 317.478 486.028 316.774 486.933 316.735C487.84 316.707 492.008 317.931 492.192 317.972C498.035 318.205 500.27 319.105 508.793 319.792C517.327 320.145 497.345 317.152 495.155 316.578C492.969 316.037 497.779 315.688 499.445 315.493C501.111 315.349 503.828 315.955 504.78 315.754C510.995 314.17 494.829 314.329 491.655 313.712C484.104 312.648 499.077 311.98 500.475 310.446C500.851 310.087 497.462 310.551 497.126 310.291C495.842 309.323 500.42 308.1 495.999 307.334C495.271 307.154 486.248 307.66 492.656 305.963C493.577 305.703 497.304 305.342 498.037 304.693C499.141 303.725 499.643 302.128 498.231 301.588C497.191 301.202 491.37 303.299 493.057 302.147C493.805 301.62 497.45 301.373 498.556 300.421C499.663 299.463 499.047 297.827 498.736 297.239C498.426 296.648 494.067 298.35 493.75 298.389C491.94 298.615 489.458 298.235 489.433 298.147C487.419 293.824 492.549 285.982 487.649 282.511C487.276 282.249 483.122 284.898 483.021 284.883C480.582 284.763 492.477 279.216 495.73 276.097C487.183 281.258 488.44 279.815 486.995 279.548C486.289 279.42 483.134 281.669 482.773 281.838C477.445 284.382 483.644 280.004 484.871 279.044C489.409 275.55 483.488 278.817 486.496 276.456C489.449 274.064 494.569 271.617 493.897 270.753C490.794 272.546 483.47 278.378 481.842 278.68C481.266 278.796 480.779 278.84 480.371 278.826C478.624 279.058 478.744 278.045 478.889 276.511C479.072 275.005 479.191 272.986 478.762 272.297C477.798 270.777 476.943 271.104 476.562 269.482C475.682 266.519 473.547 273.166 471.462 275.745C469.429 278.371 475.644 262.5 476.717 258.989C477.718 255.458 476.222 258.929 476.61 256.934C476.97 254.93 478.411 252.787 477.947 251.833C477.412 250.849 473.618 256.516 472.409 260.163C469.772 267.856 468.129 276.234 467.627 273.001C467.592 272.809 468.987 268.54 468.786 268.02C467.075 264.013 464.146 263.218 461.727 259.751C461.39 259.267 462.521 254.397 462.326 254.058C460.206 250.514 459.911 258.975 457.362 268.051C459.328 255.776 459.537 248.122 457.555 247.809C456.361 247.62 455.921 253.035 454.772 256.756C454.434 257.879 454.024 254.087 453.608 256.61C452.267 264.862 452.049 274.226 450.569 270.342C450.505 270.159 451.203 265.637 450.949 265.334C449.283 263.358 448.23 272.028 446.227 272.925C444.617 273.626 442.205 268.121 440.457 267.148C441.371 253.203 439.357 256.288 438.135 265.871C436.998 265.413 435.658 265.889 434.576 264.503C434.207 264.031 434.658 260.002 434.63 259.563C434.19 252.676 433.222 262.015 432.95 262.371C429.983 265.813 427.952 258.625 425.049 265.472C424.943 265.718 424.463 275.414 423.981 268.306C423.949 267.817 424.996 263.433 423.727 263.049C422.484 262.665 420.24 257.39 418.348 261.838C417.895 262.908 416.621 270.757 415.912 264.58C415.817 263.741 416.016 260.961 415.888 259.408C415.522 255.076 415.056 262.047 414.653 258.25L415.296 258.225C415.173 257.696 415.022 256.951 414.835 255.926C413.366 247.701 411.138 241.664 410.012 247.616C409.971 247.79 410.584 255.554 410.027 255.508C409.126 255.43 407.621 254.021 406.701 254.225C406.261 254.325 407.338 259.041 407.275 259.141C404.879 262.29 402.11 258.443 398.539 257.331C397.859 257.123 397.808 263.9 395.47 259.123C392.844 253.915 388.273 230.596 386.509 236.913C385.697 239.477 392.647 268.76 386.21 254.43C383.43 259.312 377.161 253.037 375.131 259.693C375.037 259.99 377.48 268.04 377.054 268.082C376.408 268.132 374.662 264.602 374.141 264.529C371.918 264.132 371.565 267.902 369.687 268.126C368.974 268.221 367.617 264.39 366.75 264.513C365.881 264.643 367.499 269.762 365.433 267.851C363.87 266.39 358.629 256.771 357.009 256.106C361.398 265.941 360.583 266.063 360.507 269.228C360.496 269.841 362.324 273.125 362.4 273.59C362.753 275.555 361.021 272.934 361.473 275.044C361.581 275.551 363.133 278.885 363.311 279.487C364.893 284.726 360.18 277.804 359.344 276.608C356.549 272.565 357.557 275.646 356.748 275.244L356.828 275.204C356.723 275.156 356.587 275.052 356.407 274.87C354.818 273.265 354.494 270.403 353.179 269.611C350.434 267.986 348.665 269.605 346.925 270.542C346.241 270.938 349.412 274.728 349.376 274.881C349.052 276.562 344.364 273.671 350.451 281.367C332.431 263.616 351.545 283.655 347.002 281.204C346.634 281.006 337.203 273.637 336.449 271.815C335.739 269.952 339.354 271.544 338.383 268.713C338.043 268.128 332.29 258.28 332.237 257.465C331.108 251.59 341.862 265.936 342.459 266.701C349.285 274.826 343.93 263.947 344.069 262.893C344.065 258.448 346.795 259.864 346.878 256.749C346.892 256.404 346.753 255.815 346.517 255.074L346.924 254.872C345.826 251.247 342.52 243.949 343.23 243.939C346.107 243.881 353.742 258.335 350.016 244.467C349.233 241.506 343.461 230.075 349.367 238.444C349.75 238.966 354.774 246.798 353.159 241.15C352.956 240.437 351.449 237.027 351.449 236.685C351.482 234.457 353.236 236.933 353.6 235.227C353.966 233.521 354.287 231.082 355.863 231.797C356.815 232.22 360.283 238.306 361.223 239.76C363.913 243.955 361.856 236.128 364.58 241.43C367.287 246.772 369.623 255.582 372.333 258.658C368.861 249.615 365.37 240.306 361.93 231.192C365.31 230.244 369.597 232.016 372.78 230.494C373.175 230.296 371.092 225.502 371.483 225.159C373.162 223.728 375.971 226.728 377.551 224.705C378.767 223.122 379.005 217.314 380.389 215.495C384.359 225.897 385.817 221.622 387.909 222.161C388.631 222.347 389.278 225.237 389.944 226.071C392.424 229.159 389.438 219.8 389.572 218.187C390.244 211.294 395.151 232.912 397.237 231.928C397.327 231.886 396.581 219.992 396.689 219.224C397.197 214.247 397.676 223.223 398.681 223.925C400.519 225.214 402.002 227.822 403.262 224.121C403.611 223.028 403.867 215.541 405.719 221.037C405.959 221.757 406.416 225.637 406.555 225.849C408.986 229.369 407.472 217.196 408.196 212.921C408.614 210.437 409.771 212.177 410.741 214.547L415.744 214.349C416.122 216.125 416.404 218.208 416.505 219.232C417.136 225.567 415.829 221.915 415.769 222.534C415.079 229.896 416.201 228.654 417.004 229.298C416.812 241.331 417.961 240.639 417.836 229.918C417.821 228.747 417.155 229.852 417.004 229.298C418.035 217.514 419.338 216.036 420.418 227.105C420.928 232.293 420.14 238.301 422.176 236.156C423.095 235.188 423.008 226.895 423.868 224.662C425.875 219.568 427.959 227.375 429.917 226.232C430.627 225.817 430.129 221.259 430.621 220.819C431.94 219.639 432.857 223.084 434.236 221.4C434.359 221.241 434.286 216.485 434.689 216.443C437.726 216.028 440.193 219.198 443.438 219.481C444.943 219.61 447.977 217.192 449.603 217.848C452.425 218.949 455.353 226.151 458.025 224.759C459.773 223.872 459.982 219.119 461.095 215.991C463.287 209.929 464.513 221.427 464.559 223.195C464.559 223.251 462.931 224.16 463.389 226.682C463.146 231.776 464.535 223.213 464.559 223.195C464.6 224.329 467.478 225.848 468.21 225.057C468.616 224.621 469.161 220.15 469.371 220.009C474.261 216.741 479.401 216.597 484.105 220.131C484.172 220.245 482.647 225.043 482.813 225.248C485.017 228.224 488.825 223.002 493.035 220.703C497.255 218.417 499.606 220.856 497.398 229.42C500.116 229.545 501.433 234.739 501.811 237.801C502.148 240.819 508.1 233.068 508.403 233.042C517.486 232.079 517.286 239.557 520.743 245.164C521.308 246.095 522.217 247.168 523.252 248.298C524.768 249.776 526.787 251.266 528.175 252.133C529.855 253.18 528.414 255.237 530.48 255.858C530.758 255.946 534.416 253.561 534.595 253.534C540.025 252.499 530.337 257.051 528.861 258.304C523.476 262.851 520.547 265.159 524.379 265.433C525.234 265.451 539.551 259.708 540.81 260.225C542.387 260.842 537.239 262.843 538.998 263.416C539.143 263.467 542.196 261.979 542.41 262.778C543.442 266.48 543.201 270.964 544.885 274.514C545.105 275.011 549.909 272.476 550.317 273.185C552.229 276.524 553.375 280.76 551.94 285.179C551.569 286.266 547.769 286.645 546.738 287.127C540.483 289.965 550.435 289.268 550.695 289.571C556.934 295.858 549.085 302.858 553.496 311.296C553.77 311.602 564.292 316.005 555.122 317.503C554.51 317.664 545.184 318.652 551.337 320.745C551.718 320.9 556.587 320.154 555.891 322.186C555.207 324.123 557.819 328.28 552.029 330.235C550.178 330.962 540.826 330.563 547.085 335.299C547.657 335.32 561.706 345.815 550.215 343.476C548.321 343.072 537.304 338.096 541.554 343.804C542.343 344.96 545.378 344.904 546.051 347.407C546.661 349.79 545.046 351.552 544.251 353.88C544.26 354.518 544.628 355.44 546.095 357.071C546.762 357.817 553.211 363.078 547.369 360.61C546.46 360.214 543.159 357.841 542.522 358.001C539.49 358.741 540.42 362.316 536.804 362.696C535.519 362.851 530.277 358.887 528.35 358.609C526.443 358.304 524.082 358.779 526.073 361.175C528.05 363.595 537.226 368.703 537.13 370.316C536.633 377.419 528.036 378.726 523.533 382.911C522.858 383.538 526.254 385.287 525.447 386.398C522.585 390.441 519.102 399.688 510.151 397.466C503.085 395.61 502.697 389.049 499.004 389.129C497.277 389.129 504.878 398.712 504.897 399.23C505.343 404.249 499.981 401.903 498.951 405.059C498.728 405.721 502.468 408.984 502.232 409.515C501.435 411.375 498.531 410.982 497.44 412.421C496.955 413.078 499.473 415.877 498.707 416.133C496.905 416.774 494.646 416.553 491.118 414.822C490.803 414.659 488.755 410.327 487.642 410.966C485.82 412.028 481.764 410.695 481.823 415.02C481.852 416.312 486.645 423.459 481.976 419.439C480.993 418.601 475.689 409.738 479.035 418.207C479.666 419.575 483.157 431.609 477.688 425.821C476.255 424.297 471.089 417.532 470.981 419.119C470.975 419.366 473.702 423.13 473.243 423.907C471.568 426.583 468.69 427.531 466.593 430.12C466.022 430.825 469.177 434.626 468.222 435.554C465.567 438.131 460.864 438.741 457.016 438.493C455.594 438.394 455.16 434.352 454.924 433.979C451.302 427.815 453.483 437.045 453.128 437.737C451.039 441.856 447.417 438.236 444.807 440.048C444.063 440.539 445.638 444.806 445.563 445.236C444.637 449.467 444.208 441.267 442.943 440.626C439.432 438.786 436.208 439.683 433.136 440.611C432.003 440.956 433.897 446.01 432.83 446.262C431.356 446.627 429.836 446.888 428.291 447.029C427.037 447.259 425.358 446.597 423.332 444.591C422.832 444.09 422.664 440.057 422.469 439.153C421.087 432.831 421.08 441.671 420.961 442.528C420.371 446.446 419.517 442.964 418.612 443.751C414.27 447.639 406.89 446.364 399.934 445.621C395.404 445.137 390.891 444.083 385.322 443.016C379.512 441.669 373.833 441.732 359.966 437.338C358.163 436.678 358.026 442.407 356.281 441.814C345.88 438.807 328.429 424.611 323.382 407.414C322.241 403.593 321.386 399.976 319.691 396.749C319.439 396.247 314.726 398.307 314.152 397.524C312.936 395.913 312.662 393.581 313.864 391.512C314.44 390.504 318.942 390.674 319.44 389.695C320.608 387.4 320.574 385.421 319.413 383.664C318.909 382.919 314.035 385.11 313.776 384.056C311.933 376.952 310.12 370.173 316.11 362.806C316.522 362.298 326.984 360.833 324.877 360.105C321.954 360.322 318.524 360.663 315.405 360.938C312.791 351.53 315.952 342.113 316.339 332.9C316.355 332.506 310.774 333.295 310.775 332.525C310.781 328.123 309.227 323.714 314.874 319.222C315.427 318.781 325.26 319.206 323.801 317.892C323.534 317.647 322.277 315.618 320.161 315.036C319.841 314.954 315.238 315.171 315.126 314.516C314.561 310.637 315.821 306.539 318.972 302.564C319.49 301.917 324.302 303.058 324.713 302.612C327.602 299.504 324.261 295.331 329.582 291.119C333.216 288.342 341.288 291.126 349.75 291.673C350.831 292.013 352.044 289.08 356.578 290.93C367.689 295.921 380.114 300.761 392.071 305.816C392.388 305.963 392.597 306.138 392.725 306.345C392.852 306.555 392.911 306.772 392.849 307.171C392.752 307.909 392.341 308.958 391.869 310.154C391.42 311.332 390.875 312.644 391.303 313.253C391.694 313.888 393.35 313.628 396.05 312.43C396.43 312.305 398.527 309.808 399.756 309.067C401.086 308.208 402.419 307.738 403.612 307.772C405.26 307.804 409.721 310.062 411.938 309.737C414.122 309.495 410.298 307.771 412.717 307.863C415.152 308.019 420.643 309.144 421.386 308.77ZM502.232 251.271C500.106 255.736 512.461 243.714 508.042 245.198C507.813 245.285 502.325 251.043 502.232 251.271ZM373.932 244.3C377.678 251.036 374.882 240.183 372.055 234.949C369.179 229.74 372.769 242.268 373.932 244.3ZM363.445 254.34C367.11 259.299 357.956 236.642 358.308 241.852C358.325 242.148 363.229 254.054 363.445 254.34ZM350.826 298.21C351.054 298.224 351.419 297.32 351.2 297.264C345.882 295.85 345.129 297.81 350.826 298.21ZM354.233 265.114C356.052 267.908 355.587 263.91 353.332 260.428C351.507 257.632 351.957 261.643 354.233 265.114ZM508.871 309.954C508.617 309.984 508.413 310.547 509.862 310.476C514.532 310.235 513.17 309.44 508.871 309.954ZM335.907 281.138C338.727 278.281 355.906 289.084 352.74 289.701C352.118 289.907 347.906 285.321 346.034 284.863C342.476 284.267 352.949 291.453 346.428 289.183C345.197 288.829 335.684 281.313 335.886 281.119C335.893 281.125 335.9 281.132 335.907 281.138ZM488.538 266.808C488.397 266.985 488.762 267.652 488.934 267.509C493.187 264.025 492.225 262.446 488.538 266.808ZM489.224 334.056C488.801 333.818 487.487 334.942 487.831 335.228C494.701 341.034 497.446 338.68 489.224 334.056ZM440.451 266.775C439.341 272.22 438.366 272.813 438.138 265.878C438.887 266.288 439.698 266.389 440.451 266.775Z" fill="#FF0000"/>
<path d="M374.328 276.54C358.844 275.025 338.599 270.01 323.283 265.554C318.455 264.158 321.406 261.502 318.09 260.411C311.61 258.291 305.214 258.944 298.822 256.714C296.711 255.963 300.019 251.501 297.782 250.822C285.46 247.142 273.425 247.077 260.847 244.936C259.811 244.759 258.775 244.586 257.739 244.415C219.52 238.099 178.126 235.737 145.616 240.984C126.394 244.883 113.652 249.741 102.807 261.358C102.033 262.169 101.198 263.052 100.293 264.014C93.5333 268.676 85.54 288.112 85.8828 308.648C85.8962 311.166 90.2551 310.035 90.5633 310.539C95.297 318.428 86.9563 315.286 85.4517 320.177C84.2771 324.057 83.2715 328.099 82.4072 332.241C79.1743 338.663 84.5657 353.235 92.8369 363.788C97.2869 369.587 100.481 358.882 100.472 367.585C100.493 368.197 95.6825 369.098 96.4166 371.079C97.7396 374.641 101.767 379.803 104.499 383.569C104.626 383.744 104.702 383.87 104.732 384.016C104.85 384.677 105.293 385.25 105.95 385.784C106.64 386.328 107.475 386.859 109.556 387.836C115.206 390.59 125.427 395.544 135.427 396.457C137.579 396.644 135.706 391.572 139.173 391.44C142.636 391.327 151.559 393.238 154.54 394.788C157.449 396.344 155.6 399.732 156.023 400.64C159.273 407.718 169.987 401.341 172.758 400.264C172.975 400.174 173.14 400.121 173.244 400.116C197.649 399.132 217.994 404.893 240.671 402.413C251.297 401.197 262.129 398.521 272.251 395.397C278.437 393.498 284.368 391.474 289.976 389.579C307.528 383.591 322.992 378.281 335.137 367.135C336.343 365.996 331.292 363.244 332.685 361.885C334.245 360.343 335.687 358.788 336.893 357.348C337.505 356.617 338.036 355.941 338.473 355.346C338.681 355.062 338.861 354.804 338.985 354.616C339.09 354.463 339.173 354.304 338.975 354.646C336.853 358.186 334.888 364.555 335.612 370.704C336.252 376.865 338.781 381.301 340.703 383.88C344.738 388.987 347.086 389.836 348.792 390.845C352.173 392.435 353.527 392.703 356.966 392.845C359.807 392.877 362.026 392.452 363.485 392.083C364.792 391.749 365.753 391.394 366.493 391.089C367.751 390.561 368.378 390.174 368.645 390.008C369.249 389.615 368.969 389.734 368.647 389.955C367.905 390.446 366.52 391.545 365.166 392.689C362.327 395.092 359.177 397.971 355.965 400.926C349.5 406.892 342.795 413.131 335.787 419.324C333.702 421.161 332.42 415.354 330.12 417.004C315.997 427.286 291.267 442.285 300.737 463.432C298.053 466.246 295.182 469.289 292.162 472.315C286.913 477.395 281.998 482.239 276.879 485.772C271.968 489.321 269.702 482.173 268.68 489.484C268.499 491.118 273.456 491.133 272.936 493.345C270.833 502.438 267.158 512.507 268.272 523.303C268.514 525.464 272.639 525.335 273.303 526.003C278.664 531.427 268.318 539.281 267.511 541.313C264.152 549.307 263.285 556.536 263.093 563.713C263.002 567.223 263.89 570.566 265.219 574.546C265.934 576.578 270.202 572.366 271.033 574.058C275.217 582.679 284.284 593.663 293.961 605.193C296.12 607.787 290.749 609.322 291.648 610.757C295.472 616.6 301.596 612.114 305.914 615.896C305.921 615.935 305.923 616.042 305.939 616.238C306.033 616.769 303.71 620.021 303.544 620.437C302.538 623.889 304.36 624.027 306.037 623.009C307.705 621.996 309.446 619.991 309.845 620.028C320.274 620.641 327.55 632.058 341.002 632.17C342.603 632.155 339.616 626.761 344.012 627.011C373.623 628.482 406.249 629.491 437.018 632.145C441.826 632.537 438.604 636.494 438.926 636.948C439.963 638.34 440.897 639.07 441.737 639.344C445.167 640.454 446.78 633.905 447.921 633.507C458.629 629.946 471.251 635.487 474.878 622.077C494.489 617.739 508.531 607.811 525.457 591.097C535.953 580.148 544.645 546.687 554.473 520.614C554.689 519.994 559.289 521.865 559.7 520.615C564.598 505.396 556.693 507.314 548.694 496.226C546.677 493.485 558.41 486.695 559.269 486.012C562.461 483.689 569.401 486.939 570.049 486.122C572.076 483.42 569.559 481.663 565.829 479.974C560.094 477.542 551.581 476 551.258 472.559C551.277 472.345 555.711 472.768 556.089 472.169C557.259 470.193 555.247 468.757 556.285 466.732C558.671 462.332 568.584 455.122 558.617 451.448C557.312 451.133 546.858 459.254 543.648 454.031C542.791 452.621 539.071 448.487 535.116 444.53C535.6 444.768 534.635 443.881 534.132 443.344C532.465 441.669 535.463 438.238 535.455 438.025C529.615 430.173 531.496 428.644 529.623 420.321C529.477 419.817 529.37 419.297 529.411 418.806C529.458 418.544 529.429 418.246 529.775 418.212C529.859 418.205 529.965 418.216 530.098 418.262C530.165 418.286 530.238 418.318 530.319 418.362C530.36 418.385 530.402 418.41 530.447 418.44C530.501 418.481 530.501 418.458 530.646 418.611C531.07 419.004 531.932 420.435 531.46 422.114C531.045 423.694 529.769 424.407 529.84 424.418C529.018 425.053 528.878 425.101 528.817 425.245C528.794 425.36 528.833 425.44 528.881 425.5C528.97 425.618 529.206 425.646 529.334 425.603C529.472 425.559 529.62 425.44 529.77 425.255C530.426 424.518 530.831 422.731 531.2 420.604C531.93 416.354 532.498 410.757 533.756 409.691C536.51 407.554 544.826 412.952 546.72 414.763C548.715 416.577 545.883 419.115 547.634 420.192C559.383 427.269 553.894 410.65 558.151 407.785C568.345 401.011 574.443 416.524 583.094 418.625C585.434 419.191 583.751 415.651 585.878 415.483C594.242 414.848 598.957 419.843 608.629 416.08C610.217 415.47 618.204 406.858 622.817 413.644C623.477 414.623 621.345 418.278 624.846 419.246C630.071 420.705 639.594 421.76 645.264 420.546C649.449 419.649 644.717 413.479 649.912 415.405C652.236 416.256 647.906 419.86 652.312 421.154C653.326 421.451 654.703 421.666 656.263 421.811C661.393 422.342 668.501 421.649 671.584 421.086C675.593 420.375 672.649 416.083 672.934 415.728C674.627 413.726 680.866 409.966 681.354 409.746C690.304 407.031 697.992 403.19 707.291 397.576C724.814 387.311 740.707 368.283 750.406 346.505C751.519 343.996 746.316 343.301 746.441 342.895C748.903 333.734 757.125 346.287 764.059 342.337C754.713 338.686 758.112 336.045 760.019 329.557C760.915 326.447 756.674 326.352 756.443 325.918C753.169 319.143 761.384 319.404 763.166 319.243C769.668 318.758 764.945 312.813 769.292 312.416C773.63 311.964 776.737 318.83 779.296 312.841C776.743 309.761 766.291 310.358 766.841 305.319C768.217 292.78 777.127 275.987 784.695 261.873C788.44 255.073 791.321 248.801 792.658 244.284C796.389 230.98 795.678 226.554 796.99 218.722C798.409 204.38 791.759 210.118 787.127 203.254C782 196.964 799.092 194.994 802.213 192.635C805.191 190.065 801.114 189.938 802.292 187.555C803.423 185.098 807.328 187.811 806.235 183.451C805.831 181.931 804.2 179.949 802.03 178.237C797.52 174.184 790.865 173.159 788.619 174.536C781.198 179.022 779.275 187.865 774.848 181.372C774.514 180.97 778.207 177.939 776.757 176.568C770.9 171.282 762.461 167.326 754.082 163.454C747.012 160.284 736.686 158.858 727.555 156.792C725.025 156.245 727.549 151.371 726.051 150.998C710.576 147.247 715.872 155.884 707.358 165.072C709.386 152.679 704.837 144.954 692.902 144.924C685.809 144.917 687.071 150.343 682.534 154.221C681.168 155.389 676.127 151.74 675.25 154.311C672.441 162.714 677.29 171.943 665.19 168.489C664.652 168.325 666.244 163.718 664.392 163.485C652.496 161.974 651.374 170.741 638.636 172.227C629.216 173.329 612.693 169.299 601.175 168.559C600.493 168.514 599.833 168.482 599.197 168.465C598.795 154.461 587.919 158.335 584.751 168.376C577.496 168.672 570.007 170.226 562.983 170.117C560.575 170.086 561.382 165.832 561.013 165.454C555.03 159.569 553.795 169.436 552.377 170.123C537.124 177.186 521.503 174.928 510.364 188.094C509.973 188.578 513.609 197.56 506.848 193.156C506.332 192.889 508.76 186.51 502.176 189.752C495.809 192.796 480.751 196.873 476.895 207.43C476.259 209.054 476.884 213.407 475.526 216.365C473.767 218.896 472.995 220.441 465.618 222.165C465.272 222.214 464.981 222.192 464.742 222.118C464.466 222.06 464.169 221.975 463.983 221.828C463.592 221.539 463.435 221.089 463.217 220.638C462.745 219.649 462.253 219.12 459.283 218.291C458.176 217.927 456.594 217.036 455.834 216.063C455.421 215.581 455.125 215.095 454.908 214.648C454.783 214.398 454.752 214.273 454.696 214.112C454.646 213.958 454.602 213.81 454.563 213.667C454.409 213.098 454.326 212.617 454.248 212.18C454.209 211.961 454.174 211.753 454.139 211.552C454.108 211.373 454.086 211.262 454.054 211.122C453.809 210.081 453.321 208.987 452.958 208.216C452.251 206.384 452.12 204.604 456.565 203.317C465.438 200.759 473.186 195.147 470.529 183.06C470.451 182.711 463.646 178.102 464.673 174.848C466.335 169.597 469.993 162.513 471.443 156.953C472.134 154.293 467.012 154.735 467.052 154.252C468.81 136.433 476.982 125.129 479.235 107.146C479.261 106.533 479.266 105.911 479.249 105.28C479.273 101.154 470.266 95.1267 470.79 87.0788C470.831 77.8148 495.55 69.2226 476.412 57.1261C468.83 52.7086 446.535 67.4054 442.11 54.7378C441.674 53.6073 441.315 52.2514 441.02 50.6238C416.827 41.1059 394.498 30.53 368.656 33.9607C367.488 34.1237 363.454 42.2863 360.885 42.0562C357.043 41.6943 355.023 37.7095 352.245 37.3789C340.519 35.9149 329.831 39.4393 318.577 39.3421C314.319 39.3232 315.602 35.2048 310.476 35.2176C306.196 35.2391 303.281 39.1206 298.344 39.1C297.436 39.0932 296.443 38.9958 295.282 38.7811C290.267 37.6487 280.091 30.051 272.52 32.7768C277.427 42.3682 273.053 44.5123 267.404 51.4774C266.321 52.8153 269.801 55.0492 269.394 55.8441C268.709 57.2504 267.573 57.8659 266.378 58.3721L267.309 57.6164C266.178 58.3609 264.779 59.274 264.875 61.2067C264.912 62.0224 267.911 64.155 268.149 64.9038C270.479 70.9145 259.907 73.7255 257.96 74.5578C250.756 77.1303 254.201 81.3972 250.697 84.4149C247.19 87.528 246.927 80.6909 243.939 84.8527C237.756 93.5183 234.347 106.38 231.42 116.347C230.272 120.334 235.761 118.904 235.706 119.505C234.661 127.987 227.544 135.182 236.014 141.971C210.066 142.084 237.196 147.483 229.847 158.179C229.265 159.016 217.28 157.951 216.3 153.913C215.323 149.878 220.158 145.108 218.654 139.444C218.283 138.134 209.037 128.592 208.632 127.443C205.359 118.618 222.97 122.076 224.008 121.955C235.366 120.334 226.052 108.933 225.942 106.425C225.279 95.2378 230.512 87.4851 231.203 78.0619C231.714 71.9035 221.16 66.8224 223.553 62.2354C229.966 50.6503 240.496 49.3418 248.337 39.124L252.18 36.0041C254.261 34.2492 255.898 31.2747 257.234 26.1325C258.527 21.8727 248.502 12.6644 265.109 14.9049C266.363 14.9721 278.754 18.6283 284.863 11.0539C285.67 10.0774 284.683 6.47405 286.104 5.81201C289.285 4.37619 292.709 3.7204 296.338 3.60147C299.151 3.61773 302.031 4.45789 305.703 3.31833C311.287 1.60379 318.048 -0.81498 324.701 0.270607C328.746 0.911617 333.924 7.78236 335.82 9.46957C341.139 14.3143 346.968 6.33419 350.192 12.3332C353.363 18.3688 346.85 27.258 355.186 31.3334C355.798 21.6615 356.864 11.7491 357.748 2.03307C377.591 3.13879 397.005 7.95562 418.285 12.8701C420.945 13.4991 419.528 7.73693 422.496 8.32427C435.241 11.082 445.011 18.3181 459.379 25.5894C459.912 25.8652 460.451 26.1399 460.997 26.4148C469.718 30.4469 481.408 32.9411 490.61 39.8748C488.121 52.7375 502.751 62.4433 508.877 77.967C510.897 83.2628 507.967 84.092 508.39 88.1748C509.087 104.017 516.537 95.1624 519.017 99.6893C519.744 101.298 520.236 102.881 520.526 104.393C523.032 122.359 503.365 119.959 501.732 132.549C501.644 133.262 511.342 144.165 511.749 145.527C514.67 153.906 507.469 145.776 505.524 150.035C501.955 157.71 497.774 162.348 498.637 172.261C498.905 175.154 504.263 183.367 497.427 186.738C496.527 187.198 492.86 185.8 492.494 186.268C486.244 194.699 498.073 198.05 500.897 203.9C503.508 209.28 495.113 215.215 492.506 206.541C491.641 205.14 489.991 200.794 488.382 198.613C486.763 196.237 485.775 195.534 486.018 196.47C486.728 198.208 488.948 206.061 488.755 207.165C488.975 209.471 489.044 209.86 489.203 210.081C489.342 210.253 489.467 210.094 489.314 210.077C485.72 209.122 484.138 209.394 483.43 209.647C483.256 209.659 483.151 209.586 483.067 209.219C483.024 208.98 482.986 208.619 482.909 208.047C482.87 207.76 482.821 207.42 482.749 207.01C482.711 206.792 482.679 206.625 482.615 206.301C482.544 205.952 482.457 205.562 482.343 205.124C482.114 204.25 481.785 203.181 481.216 201.874C480.931 201.22 480.584 200.508 480.148 199.741C479.926 199.351 479.705 198.985 479.41 198.531C479.038 197.961 478.615 197.369 478.133 196.764C474.771 191.591 464.386 187.308 459.378 188.032C456.553 188.114 454.338 188.672 452.674 189.246C452.257 189.391 451.871 189.539 451.514 189.687C451.267 189.791 451.063 189.882 450.854 189.978C450.442 190.168 450.073 190.355 449.741 190.535C448.416 191.259 447.649 191.853 447.136 192.288C450.641 199.718 453.913 200.05 452.775 197.565C452.269 196.248 450.549 194.435 447.173 192.823C447.108 192.791 447.041 192.774 446.973 192.77C446.513 192.66 446.145 193.129 446.11 193.262C446.002 193.471 446.555 193.047 447.136 192.288C443.079 190.725 441.18 189.043 440.446 187.376C441.009 181.195 447.926 176.25 458.204 177.248C465.229 178.111 465.588 185.172 474.975 175.344C479.375 171.038 472.769 165.512 476.356 160.502C484.946 148.877 503.609 148.684 514.971 143.448C519.178 141.5 513.408 138.71 516.309 137.223C524.076 133.292 532.159 134.548 539.91 130.925C540.609 130.594 537.711 126.392 540.254 125.741C559.88 120.765 577.181 121.721 597.116 120.749C597.722 120.721 598.359 120.683 599.024 120.636C608.051 119.973 622.451 117.104 631.095 117.288C647.067 117.579 666.901 123.934 680.619 122.082C689.597 120.897 687.605 116.182 691.45 112.917C698.901 106.574 712.469 117.953 714.183 119.754C714.195 119.803 706.314 120.808 710.496 123.306C712.84 128.421 714.079 119.775 714.183 119.754C715.303 120.85 731.329 122.461 734.789 121.862C736.63 121.486 735.929 116.93 736.91 116.824C746.012 116.286 752.536 114.592 769.751 119.165C782.161 122.972 797.965 125.527 818.314 145.198C818.802 145.796 814.514 148.641 815.632 149.948C819.693 154.799 823.368 159.734 826.496 164.598C832.616 173.527 839.719 180.706 844.961 190.87C851.986 204.739 850.961 217.465 842.083 224.979C842.969 235.254 836.857 248.484 832.744 255.019C828.683 261.599 837.651 265.329 837.665 266.049C837.6 272.052 836.684 277.027 835.214 281.561C832.11 291.517 825.957 298.535 820.378 310.343C816.742 318.058 811.266 334.286 808.176 343.379C805.774 350.574 801.736 353.658 799.873 360.629C799.618 361.567 803.945 362.677 803.964 363.012C804.965 372.53 797.229 364.211 794.794 364.784C785.872 366.857 781.099 368.109 778.783 378.573C778.285 380.924 787.739 394.96 785.817 399.52C783.361 405.298 780.147 400.25 777.509 406.353C777.26 406.881 780.158 408.716 777.555 412.006C768.716 423.022 757.409 434.759 741.46 445.647C737.559 448.206 732.852 451.406 727.505 454.697C724.739 456.356 731.13 458.889 726.967 461.424C706.34 474.339 678.255 478.933 660.024 476.563C655.384 476.025 658.227 472.191 657.215 471.091C657.087 470.951 656.958 470.819 656.828 470.694C651.754 464.795 644.92 474.189 643.728 474.356C615.515 478.704 595.286 468.442 567.801 470.592C566.358 470.735 554.102 480.33 549.911 470.898C549.598 470.269 545.475 460.633 540.736 466.606C540.445 466.981 542.994 471.961 537.927 471.077C536.119 470.751 533.572 470.914 531.544 471.007C530.983 471.027 530.505 471.046 530.158 471.056C529.758 471.062 529.481 471.063 529.648 471.041C529.755 471.029 530.021 471.014 530.601 470.968C531.011 470.941 531.609 470.903 532.524 470.811C532.984 470.765 533.529 470.704 534.204 470.614C534.555 470.566 534.867 470.521 535.365 470.444C536.139 470.325 537.054 470.169 538.204 469.924C540.536 469.376 543.637 468.791 549.413 466.085C550.865 465.384 552.497 464.517 554.342 463.357C554.809 463.048 561.64 458.948 567.118 451.821C572.871 444.809 578.118 432.296 577.728 420.262C577.533 408.186 573.147 399.062 569.549 393.592C568.627 392.187 567.721 390.958 566.85 389.865C566.415 389.319 565.988 388.807 565.571 388.326C565.362 388.085 565.156 387.851 564.953 387.625C564.858 387.52 564.792 387.447 564.712 387.359C564.094 386.683 563.5 386.071 562.931 385.51C561.793 384.389 560.756 383.472 559.811 382.688C557.92 381.124 556.392 380.071 555.105 379.24C552.54 377.604 550.891 376.815 549.614 376.215C549.455 376.142 549.303 376.073 549.157 376.008C548.999 375.937 548.978 375.93 548.892 375.893C548.744 375.83 548.602 375.772 548.466 375.716C548.194 375.606 547.945 375.509 547.715 375.422C547.256 375.249 546.872 375.117 546.542 375.011C545.884 374.8 545.438 374.692 545.115 374.631C543.925 374.292 543.511 374.25 543.251 374.244C543.017 374.248 542.975 374.313 543.01 374.402C543.084 374.582 543.453 374.86 543.863 375.172C544.718 375.806 545.847 376.614 546.969 377.564C548.496 378.857 550.847 382.317 554.829 385.546C558.927 388.97 564.238 391.304 575.251 395.293C575.559 395.417 577.385 395.822 580.331 397.108C585.631 396.261 599.651 398.263 595.971 408.201C595.172 410.404 585.173 416.423 597.836 423.686C600.31 425.31 599.9 419.507 605.245 424.933C613.639 433.655 616.878 450.568 623.561 465.257C624.66 467.348 631.51 476.389 628.593 484.462C628.172 485.188 627.527 485.889 626.599 486.539C625.56 487.264 621.63 485.451 620.972 488.09C617.813 500.605 619.075 514.253 614.386 526.91C612.726 531.359 606.597 528.05 604.115 532.501C601.641 536.974 598.266 546.121 600.137 551.73C602.003 557.377 613.455 553.96 612.539 561.951C611.085 573.765 608.044 585.561 602.886 598.158C596.915 610.946 592.927 623.714 572.093 642.985C567.033 646.495 555.194 656.751 544.379 663.937C539.235 667.347 545.672 667.59 537.873 672.736C515.204 688.64 473.176 702.693 444.855 700.157C438.742 699.676 433.196 698.75 428.554 697.268C410.767 691.471 432.688 685.936 419.26 683.75C412.835 682.696 406.025 694.946 404.426 695.344C388.999 699.382 378.206 693.87 363.949 694.935C360.968 695.144 363.66 700.199 361.108 700.318C352.368 700.756 343.249 697.906 334.534 697.377C330.564 697.135 330.888 700.96 327.215 700.212C318.404 698.416 310.395 695.53 301.52 689.742C300.735 689.214 307.686 686.12 300.48 684.138C291.771 681.29 282.323 677.862 266.326 666.593C263.765 664.753 260.963 663.104 257.827 661.834C254.49 660.478 248.822 667.035 246.767 657.388C246.316 655.302 254.848 649.223 241.997 649.486C240.073 649.866 219.107 646.057 219.198 633.295C219.217 630.036 222.402 620.236 218.441 616.391C217.853 615.841 215.588 620.972 212.699 617.144C202.923 604.039 195.644 583.728 194.978 562.324C194.944 561.963 194.909 561.603 194.871 561.244C194.543 558.162 189.662 562.629 189.33 558.046C188.42 545.426 190.236 528.81 193.481 514.377C194.707 509.035 198.17 513.284 198.646 512.934C206.379 507.704 197.715 502.512 197.593 500.095C196.977 485.545 204.702 474.881 209.599 461.354C211.018 457.586 205.737 458.227 205.716 457.326C205.984 447.907 210.396 457.183 213.593 452.977C221.111 443.346 228.291 433.502 234.865 425.013C235.942 423.595 236.983 422.188 237.993 420.81C240.146 417.864 233.495 417.699 235.493 415.071C247.199 399.515 260.582 384.217 275.536 371.305C278.355 368.89 279.888 373.275 281.082 373.3C289.377 373.543 287.971 361.876 288.568 359.962C291.326 351.167 296.167 351.136 301.138 344.956C304.15 341.248 307.426 337.447 311.819 333.084C314.126 330.829 316.461 328.589 320.361 325.519C322.347 323.987 324.611 322.268 328.494 319.986C330.464 318.854 332.943 317.481 336.848 315.925C338.969 315.092 341.42 314.256 344.391 313.533C348.008 312.666 352.489 311.922 358.041 311.979C368.688 312.317 375.621 313.868 385.741 318.74C390.811 321.577 396.962 324.377 405.647 335.364C409.797 340.892 414.93 349.948 416.252 362.262C417.738 374.556 413.879 387.332 409.447 394.764C379.615 438.312 351.157 446.034 325.63 456.848C313.315 461.309 301.829 464.27 290.685 466.535C257.194 473.111 227.618 473.635 193.77 472.89C190.9 472.801 193.527 478.304 191.012 478.287C181.418 478.128 171.993 477.308 162.612 476.025C142.031 473.032 122.624 469.983 96.9178 463.863C93.8507 463.058 96.8786 469.306 91.6583 468.058C81.3785 465.427 63.5255 459.313 48.0123 441.988C41.2364 433.781 53.9625 441.011 47.5507 432.949C46.215 431.157 44.9422 429.308 43.766 427.456C39.8668 419.906 34.3935 411.761 28.4739 403.468C25.667 399.507 25.0163 408.523 21.6707 403.032C11.4648 385.124 -1.73933 362.883 0.189053 326.733C2.01041 308.918 4.02133 290.432 12.1661 267.263C13.3023 264.182 24.0711 263.944 24.0083 256.807C21.3463 255.472 18.0368 254.512 15.1059 253.38C18.6721 240.005 25.8155 224.071 36.891 211.006C57.0627 183.537 98.3821 164.519 126.345 159.882C147.256 155.735 163.645 155 181.122 154.171C183.455 154.079 179.174 148.684 183.65 148.488C209.656 147.433 234.504 146.641 259.553 154.114C261.632 154.737 260.482 161.731 264.572 163.388C265.316 163.696 266.239 163.819 267.394 163.686C268.698 163.513 279.706 163.224 282.737 161.401C283.154 161.12 281.626 156.345 285.159 156.574C305.707 157.998 326.844 161.831 346.498 167.692C349.671 168.649 345.465 172.949 347.724 173.674C363.621 178.767 381.939 178.173 396.815 185.689C406.743 190.771 401.105 198.253 404.879 207.587C405.429 208.896 411.849 210.584 411.053 215.397C408.891 227.405 402.851 239.653 400.959 252.552C400.746 253.938 402.64 254.348 403.551 255.054C404.48 255.767 404.644 256.785 402.229 259.623C402.095 260.03 396.513 260.967 394.627 262.906C393.362 264.244 393.923 269.419 391.606 270.976C389.34 272.546 388.108 268.05 384.375 269.708C380.609 271.399 380.981 277.175 374.328 276.54ZM813.028 281.158C806.555 284.73 822.25 291.894 820.706 284.596C820.613 284.234 813.351 280.968 813.028 281.158ZM395.202 21.8855C401.683 30.5841 409.272 20.8444 404.682 13.9315C399.803 7.04157 393.094 19.2465 395.202 21.8855ZM315.634 24.3198C324.546 29.975 325.264 5.50861 315.835 10.7971C315.29 11.0985 315.116 23.9932 315.634 24.3198ZM379.129 204.826C379.19 205.068 383.639 206.131 383.824 205.938C387.281 201.02 378.224 198.865 379.129 204.826ZM247.447 67.3796C251.518 66.3347 252.253 57.3326 246.895 58.4451C242.385 59.5453 242.173 68.8626 247.447 67.3796ZM582.723 427.032C582.645 426.769 579.416 426.301 579.379 427.753C579.237 432.431 583.894 431.447 582.723 427.032ZM218.689 194.986C219.334 175.538 239.866 164.773 237.41 184.982C236.999 188.691 230.98 177.007 229.153 181.715C225.832 190.473 238.593 195.974 232.092 204.949C230.89 206.636 218.588 196.14 218.66 194.953C218.67 194.964 218.679 194.975 218.689 194.986ZM792.579 276.583C792.329 276.601 790.45 280.729 790.618 280.913C794.785 285.232 798.584 276.891 792.579 276.583ZM557.188 533.047C556.699 533.211 554.29 543.191 554.626 543.593C562.323 550.824 567.349 530.145 557.188 533.047ZM599.002 168.101C594.522 173.834 589.13 174.899 584.772 168.381C589.431 168.302 594.235 168.006 599.002 168.101Z" fill="#FF0000"/>
</svg>
